/* XPM */
static char * bottom_left_inactive_xpm[] = {
"20 20 3 1",
" 	c None",
".	c #000000",
"+	c #474747",
".+++.               ",
".+++.               ",
".+++.               ",
".+++.               ",
".+++.               ",
".+++.               ",
".+++.               ",
".+++.               ",
".+++.               ",
".+++.               ",
".+++.               ",
".+++.               ",
".+++.               ",
".+++.               ",
".+++.               ",
".+++................",
".+++++++++++++++++++",
".+++++++++++++++++++",
".+++++++++++++++++++",
"...................."};
