/* XPM */
static char * hide_active_xpm[] = {
"18 20 4 1",
" 	c None",
".	c #212121",
"+	c #000000",
"@	c #919189",
"..................",
"..++++++++++++++..",
".++............++.",
".+..............+.",
".+..............+.",
".+..............+.",
".+..............+.",
".+.....@@@@.....+.",
".+.....@..@.....+.",
".+.....@..@.....+.",
".+.....@@@@.....+.",
".+..............+.",
".+..............+.",
".+..............+.",
".+..............+.",
".+..............+.",
".++............++.",
"..++++++++++++++..",
"..................",
".................."};
