/* XPM */
static char * menu_pressed_xpm[] = {
"18 20 4 1",
" 	c None",
".	c #212121",
"+	c #000000",
"@	c #474747",
"..................",
"..++++++++++++++..",
".++@@@@@@@@@@@@++.",
".+@@@@@@@@@@@@@@+.",
".+@@@@@@@@@@@@@@+.",
".+@@@@@@@@@@@@@@+.",
".+@@@@@@@@@@@@@@+.",
".+@@@@@@@@@@@@@@+.",
".+@@@++++++++@@@+.",
".+@@@++++++++@@@+.",
".+@@@@@@@@@@@@@@+.",
".+@@@@@@@@@@@@@@+.",
".+@@@@@@@@@@@@@@+.",
".+@@@@@@@@@@@@@@+.",
".+@@@@@@@@@@@@@@+.",
".+@@@@@@@@@@@@@@+.",
".++@@@@@@@@@@@@++.",
"..++++++++++++++..",
"..................",
".................."};
