/* XPM */
static char * stick_inactive_xpm[] = {
"18 20 3 1",
" 	c None",
".	c #474747",
"+	c #919189",
"..................",
"..................",
"..................",
"..................",
"..................",
".......++++.......",
"......+....+......",
".....+......+.....",
".....+......+.....",
".....+......+.....",
".....+......+.....",
"......+....+......",
".......++++.......",
"..................",
"..................",
"..................",
"..................",
"..................",
"..................",
".................."};
