/* XPM */
static char * title_2_inactive_xpm[] = {
"10 25 4 1",
" 	c None",
".	c #000000",
"+	c #474747",
"@	c #3D3D3D",
"..........",
"++++++..@@",
"++++++.@@+",
"++++++.@++",
"++++++.@++",
"++++++.@++",
"++++++.@++",
"++++++.@++",
"++++++.@++",
"++++++.@++",
"++++++.@++",
"++++++.@++",
"++++++.@++",
"++++++.@++",
"++++++.@++",
"++++++.@++",
"++++++.@++",
"++++++.@++",
"++++++.@++",
"++++++.@++",
"++++++.@++",
"++++++.@++",
"++++++.@@+",
"++++++..@@",
".........."};
