/* XPM */
static char * title_5_inactive_xpm[] = {
"5 25 3 1",
" 	c None",
".	c #000000",
"+	c #474747",
".....",
"+++++",
"+++++",
"+++++",
"+++++",
"+++++",
"+++++",
"+++++",
"+++++",
"+++++",
"+++++",
"+++++",
"+++++",
"+++++",
"+++++",
"+++++",
"+++++",
"+++++",
"+++++",
"+++++",
"+++++",
"+++++",
"+++++",
"+++++",
"....."};
