/* XPM */
static char * title_4_active_xpm[] = {
"10 25 5 1",
" 	c None",
".	c #000000",
"+	c #3D3D3D",
"@	c #212121",
"#	c #FFFFFF",
"..........",
"++..@@@@@@",
"#++.@@@@@@",
"##+.@@@@@@",
"##+.@@@@@@",
"##+.@@@@@@",
"##+.@@@@@@",
"##+.@@@@@@",
"##+.@@@@@@",
"##+.@@@@@@",
"##+.@@@@@@",
"##+.@@@@@@",
"##+.@@@@@@",
"##+.@@@@@@",
"##+.@@@@@@",
"##+.@@@@@@",
"##+.@@@@@@",
"##+.@@@@@@",
"##+.@@@@@@",
"##+.@@@@@@",
"##+.@@@@@@",
"##+.@@@@@@",
"#++.@@@@@@",
"++..@@@@@@",
".........."};
