/* XPM */
static char * title_4_inactive_xpm[] = {
"10 25 4 1",
" 	c None",
".	c #000000",
"+	c #3D3D3D",
"@	c #474747",
"..........",
"++..@@@@@@",
"@++.@@@@@@",
"@@+.@@@@@@",
"@@+.@@@@@@",
"@@+.@@@@@@",
"@@+.@@@@@@",
"@@+.@@@@@@",
"@@+.@@@@@@",
"@@+.@@@@@@",
"@@+.@@@@@@",
"@@+.@@@@@@",
"@@+.@@@@@@",
"@@+.@@@@@@",
"@@+.@@@@@@",
"@@+.@@@@@@",
"@@+.@@@@@@",
"@@+.@@@@@@",
"@@+.@@@@@@",
"@@+.@@@@@@",
"@@+.@@@@@@",
"@@+.@@@@@@",
"@++.@@@@@@",
"++..@@@@@@",
".........."};
